# Blender v3.0.1 OBJ File: ''
# www.blender.org
mtllib paraquedas.mtl
o Paraquedas_(2)
v 0.000000 -0.173594 1.359531
v -0.003091 -0.157993 1.351731
v -0.003092 -0.754399 0.286866
v 0.000000 -0.770000 0.294666
v 0.003500 -0.173594 1.359531
v 0.003500 -0.770000 0.294666
v 0.006592 -0.754399 0.286866
v 0.006592 -0.157993 1.351731
v 0.173594 0.003500 1.359531
v 0.770000 0.003500 0.294666
v 0.754399 0.006592 0.286866
v 0.157993 0.006592 1.351731
v 0.173594 -0.000000 1.359531
v 0.157993 -0.003091 1.351731
v 0.754399 -0.003092 0.286866
v 0.770000 -0.000000 0.294666
v 0.000000 0.173594 1.359531
v 0.003091 0.157993 1.351731
v 0.003092 0.754399 0.286866
v 0.000000 0.770000 0.294666
v -0.003500 0.173594 1.359531
v -0.003500 0.770000 0.294666
v -0.006592 0.754399 0.286866
v -0.006592 0.157993 1.351731
v -0.173594 -0.003500 1.359531
v -0.770000 -0.003500 0.294666
v -0.754399 -0.006592 0.286866
v -0.157993 -0.006592 1.351731
v -0.173594 -0.000000 1.359531
v -0.157993 0.003091 1.351731
v -0.754399 0.003092 0.286866
v -0.770000 -0.000000 0.294666
v 0.000017 0.000029 -0.473889
v 0.254374 0.146883 -0.415467
v 0.259634 -0.149861 -0.422195
v 0.149907 -0.259588 -0.422195
v -0.149873 -0.259588 -0.422195
v -0.259600 -0.149861 -0.422195
v 0.149907 0.259647 -0.422195
v -0.259600 0.149920 -0.422195
v -0.149873 0.259647 -0.422195
v 0.000017 -0.783335 0.301539
v 0.614090 0.354565 -0.000103
v 0.709087 0.000029 -0.000103
v 0.767510 0.000029 0.293604
v 0.664685 0.383775 0.293604
v 0.664685 -0.383717 0.293604
v 0.614090 -0.354506 -0.000103
v 0.354553 0.614103 -0.000103
v 0.383763 0.664697 0.293604
v 0.354553 -0.614044 -0.000103
v 0.000017 0.767522 0.293604
v -0.354519 0.614103 -0.000103
v -0.383729 0.664697 0.293604
v -0.614056 0.354565 -0.000103
v -0.664651 0.383775 0.293604
v -0.614056 -0.354506 -0.000103
v -0.709053 0.000029 -0.000103
v -0.767476 0.000029 0.293604
v -0.469974 0.271379 -0.249096
v 0.271366 0.470021 -0.249096
v 0.271366 -0.469962 -0.249096
v 0.470008 0.271379 -0.249096
v 0.542716 0.000029 -0.249096
v 0.293724 0.000029 -0.415467
v -0.293690 0.000029 -0.415467
v 0.000017 0.293736 -0.415467
v 0.391699 -0.678385 0.301539
v 0.000017 -0.723705 0.001759
v -0.391665 -0.678385 0.301539
v -0.361851 -0.626743 0.001759
v 0.000017 0.723764 0.001759
v -0.678397 -0.391653 0.301539
v 0.000017 0.553952 -0.252383
v -0.276944 0.479741 -0.252383
v -0.553905 0.000029 -0.252383
v -0.479694 -0.276932 -0.252383
v -0.276944 -0.479682 -0.252383
v 0.000017 -0.553893 -0.252383
v 0.479728 -0.276932 -0.252383
v 0.000017 -0.299751 -0.422195
vt 0.485635 0.602678
vt 0.488517 0.615148
vt 0.010546 0.615148
vt 0.007664 0.602678
vt 0.485635 0.541072
vt 0.007664 0.541072
vt 0.012021 0.528602
vt 0.489992 0.528602
vt 0.485635 0.522553
vt 0.007664 0.522553
vt 0.012021 0.510083
vt 0.489992 0.510083
vt 0.485635 0.584159
vt 0.488517 0.596629
vt 0.010546 0.596629
vt 0.007664 0.584159
vt 0.485634 0.565640
vt 0.488516 0.578110
vt 0.010546 0.578110
vt 0.007664 0.565640
vt 0.485632 0.559591
vt 0.007664 0.559591
vt 0.012021 0.547121
vt 0.489989 0.547121
vt 0.485634 0.504034
vt 0.007664 0.504034
vt 0.012021 0.491564
vt 0.489991 0.491564
vt 0.485633 0.621197
vt 0.488514 0.633667
vt 0.010546 0.633667
vt 0.007664 0.621197
vt 0.835535 0.781131
vt 0.823679 0.763406
vt 0.796476 0.794418
vt 0.809814 0.833505
vt 0.827242 0.821392
vt 0.783132 0.755375
vt 0.765385 0.767315
vt 0.757473 0.807876
vt 0.769399 0.825585
vt 0.895119 0.887592
vt 0.996143 0.845008
vt 0.928471 0.825942
vt 0.944338 0.937884
vt 0.994864 0.738775
vt 0.926700 0.755977
vt 0.835382 0.924363
vt 0.852988 0.992664
vt 0.942944 0.644714
vt 0.890226 0.695481
vt 0.765048 0.927557
vt 0.746502 0.994030
vt 0.848099 0.591474
vt 0.828421 0.660534
vt 0.703581 0.893401
vt 0.653636 0.942783
vt 0.666466 0.833889
vt 0.598473 0.851848
vt 0.756985 0.662554
vt 0.645129 0.648794
vt 0.696951 0.701139
vt 0.663943 0.763601
vt 0.595953 0.745430
vt 0.739706 0.857244
vt 0.716541 0.820220
vt 0.713565 0.776716
vt 0.733503 0.737466
vt 0.770462 0.713527
vt 0.778745 0.877155
vt 0.821939 0.874328
vt 0.853140 0.732280
vt 0.814493 0.711412
vt 0.858609 0.850853
vt 0.877205 0.768830
vt 0.878525 0.812303
vt 0.836451 0.802411
vt 0.804474 0.753946
vt 0.756360 0.786604
vt 0.788652 0.834343
vt 0.739112 0.592648
vn -0.9846 -0.1524 0.0854
vn -0.9846 -0.1525 0.0854
vn 0.9846 -0.1525 0.0854
vn 0.1525 0.9846 0.0854
vn 0.1524 -0.9846 0.0854
vn 0.1525 -0.9846 0.0854
vn 0.9846 0.1524 0.0854
vn 0.9846 0.1525 0.0854
vn -0.9846 0.1525 0.0854
vn -0.1525 -0.9846 0.0854
vn -0.1524 0.9846 0.0854
vn -0.1525 0.9846 0.0854
vn 0.3861 -0.1632 -0.9079
vn 0.2120 -0.3869 -0.8974
vn -0.0001 0.0002 -1.0000
vn 0.1825 0.3858 -0.9044
vn 0.3916 0.1606 -0.9060
vn -0.1693 -0.3374 -0.9260
vn -0.3668 -0.2087 -0.9066
vn -0.3878 0.1426 -0.9106
vn -0.1997 0.3670 -0.9085
vn 0.8030 0.4541 -0.3860
vn 0.9808 -0.0000 -0.1951
vn 0.9275 0.0174 -0.3733
vn 0.8494 0.4904 -0.1951
vn 0.8567 -0.4776 -0.1951
vn 0.8191 -0.4420 -0.3656
vn 0.4833 0.7858 -0.3859
vn 0.5000 0.8460 -0.1851
vn 0.4912 -0.8400 -0.2304
vn 0.4815 -0.7863 -0.3871
vn 0.0033 0.9317 -0.3632
vn -0.0101 0.9873 -0.1585
vn 0.0097 -0.9787 -0.2049
vn 0.0075 -0.9325 -0.3610
vn -0.4700 0.8013 -0.3701
vn -0.4904 0.8494 -0.1951
vn -0.7943 0.4725 -0.3820
vn -0.8494 0.4904 -0.1951
vn -0.4603 -0.8013 -0.3821
vn -0.8544 -0.4663 -0.2293
vn -0.8025 -0.4613 -0.3784
vn -0.9290 0.0083 -0.3699
vn -0.9789 0.0056 -0.2042
vn -0.3616 0.6307 -0.6866
vn -0.6273 0.3941 -0.6717
vn -0.7315 0.0432 -0.6805
vn -0.6419 -0.3429 -0.6858
vn -0.3753 -0.6051 -0.7022
vn 0.0442 0.7258 -0.6865
vn 0.3463 0.6344 -0.6911
vn 0.3447 -0.6207 -0.7042
vn 0.0166 -0.7425 -0.6697
vn 0.6112 0.3843 -0.6919
vn 0.6156 -0.3591 -0.7015
vn 0.7212 0.0414 -0.6915
vn 0.2801 0.1351 -0.9504
vn 0.0394 -0.4008 -0.9153
vn -0.4121 0.0578 -0.9093
vn -0.0467 0.5168 -0.8548
vn -0.4904 -0.8494 -0.1951
usemtl foguete-foguete__foguete_rgba_png
s 1
f 1/1/1 2/2/1 3/3/2
f 3/3/2 4/4/2 1/1/1
f 5/5/3 6/6/3 7/7/3
f 7/7/3 8/8/3 5/5/3
f 9/9/4 10/10/4 11/11/4
f 11/11/4 12/12/4 9/9/4
f 13/13/5 14/14/5 15/15/6
f 15/15/6 16/16/6 13/13/5
f 17/17/7 18/18/7 19/19/8
f 19/19/8 20/20/8 17/17/7
f 21/21/9 22/22/9 23/23/9
f 23/23/9 24/24/9 21/21/9
f 25/25/10 26/26/10 27/27/10
f 27/27/10 28/28/10 25/25/10
f 29/29/11 30/30/11 31/31/12
f 31/31/12 32/32/12 29/29/11
f 35/33/13 36/34/14 33/35/15
f 39/36/16 34/37/17 33/35/15
f 37/38/18 38/39/19 33/35/15
f 40/40/20 41/41/21 33/35/15
f 43/42/22 45/43/23 44/44/24
f 45/43/23 43/42/22 46/45/25
f 47/46/26 44/44/24 45/43/23
f 44/44/24 47/46/26 48/47/27
f 49/48/28 46/45/25 43/42/22
f 46/45/25 49/48/28 50/49/29
f 68/50/30 48/47/27 47/46/26
f 48/47/27 68/50/30 51/51/31
f 72/52/32 50/49/29 49/48/28
f 50/49/29 72/52/32 52/53/33
f 42/54/34 51/51/31 68/50/30
f 51/51/31 42/54/34 69/55/35
f 53/56/36 52/53/33 72/52/32
f 52/53/33 53/56/36 54/57/37
f 55/58/38 54/57/37 53/56/36
f 54/57/37 55/58/38 56/59/39
f 71/60/40 73/61/41 57/62/42
f 58/63/43 56/59/39 55/58/38
f 56/59/39 58/63/43 59/64/44
f 59/64/44 57/62/42 73/61/41
f 57/62/42 59/64/44 58/63/43
f 72/52/32 75/65/45 53/56/36
f 53/56/36 60/66/46 55/58/38
f 60/66/46 53/56/36 75/65/45
f 55/58/38 76/67/47 58/63/43
f 76/67/47 55/58/38 60/66/46
f 58/63/43 77/68/48 57/62/42
f 77/68/48 58/63/43 76/67/47
f 57/62/42 78/69/49 71/60/40
f 78/69/49 57/62/42 77/68/48
f 49/48/28 74/70/50 72/52/32
f 74/70/50 49/48/28 61/71/51
f 62/72/52 69/55/35 79/73/53
f 69/55/35 62/72/52 51/51/31
f 43/42/22 61/71/51 49/48/28
f 61/71/51 43/42/22 63/74/54
f 80/75/55 51/51/31 62/72/52
f 51/51/31 80/75/55 48/47/27
f 44/44/24 63/74/54 43/42/22
f 63/74/54 44/44/24 64/76/56
f 48/47/27 64/76/56 44/44/24
f 64/76/56 48/47/27 80/75/55
f 79/73/53 36/34/14 62/72/52
f 62/72/52 35/33/13 80/75/55
f 35/33/13 62/72/52 36/34/14
f 80/75/55 65/77/57 64/76/56
f 65/77/57 80/75/55 35/33/13
f 81/78/58 33/35/15 36/34/14
f 33/35/15 81/78/58 37/38/18
f 34/37/17 35/33/13 33/35/15
f 35/33/13 34/37/17 65/77/57
f 34/37/17 64/76/56 65/77/57
f 64/76/56 34/37/17 63/74/54
f 39/36/16 63/74/54 34/37/17
f 63/74/54 39/36/16 61/71/51
f 38/39/19 76/67/47 66/79/59
f 67/80/60 61/71/51 39/36/16
f 61/71/51 67/80/60 74/70/50
f 41/41/21 39/36/16 33/35/15
f 39/36/16 41/41/21 67/80/60
f 66/79/59 33/35/15 38/39/19
f 33/35/15 66/79/59 40/40/20
f 60/66/46 66/79/59 76/67/47
f 66/79/59 60/66/46 40/40/20
f 41/41/21 74/70/50 67/80/60
f 75/65/45 40/40/20 60/66/46
f 69/55/35 42/54/34 70/81/61
f 70/81/61 71/60/40 69/55/35
f 71/60/40 70/81/61 73/61/41
f 72/52/32 74/70/50 75/65/45
f 71/60/40 78/69/49 79/73/53
f 79/73/53 69/55/35 71/60/40
f 37/38/18 78/69/49 77/68/48
f 77/68/48 38/39/19 37/38/18
f 81/78/58 79/73/53 78/69/49
f 78/69/49 37/38/18 81/78/58
f 79/73/53 81/78/58 36/34/14
f 38/39/19 77/68/48 76/67/47
f 75/65/45 41/41/21 40/40/20
f 41/41/21 75/65/45 74/70/50
